<mxfile host="app.diagrams.net" modified="2023-09-30T10:53:02.134Z" agent="Mozilla/5.0 (Windows NT 10.0; Win64; x64; rv:109.0) Gecko/20100101 Firefox/118.0" etag="HIlGrnAEbyHg43-qtSPV" version="22.0.0" type="device">
  <diagram name="Pagina-1" id="VzRX3VsKA3ARjDLkncGv">
    <mxGraphModel dx="989" dy="514" grid="1" gridSize="10" guides="1" tooltips="1" connect="1" arrows="1" fold="1" page="1" pageScale="1" pageWidth="827" pageHeight="1169" math="0" shadow="0">
      <root>
        <mxCell id="0" />
        <mxCell id="1" parent="0" />
        <mxCell id="2uR5KkTxT499U1MgxyAB-1" value="1" style="ellipse;whiteSpace=wrap;html=1;aspect=fixed;fontFamily=Times New Roman;fontSize=24;" parent="1" vertex="1">
          <mxGeometry x="364" y="170" width="50" height="50" as="geometry" />
        </mxCell>
        <mxCell id="2uR5KkTxT499U1MgxyAB-2" value="3" style="ellipse;whiteSpace=wrap;html=1;aspect=fixed;fontFamily=Times New Roman;fontSize=24;" parent="1" vertex="1">
          <mxGeometry x="260" y="260" width="50" height="50" as="geometry" />
        </mxCell>
        <mxCell id="2uR5KkTxT499U1MgxyAB-3" value="7" style="ellipse;whiteSpace=wrap;html=1;aspect=fixed;fontFamily=Times New Roman;fontSize=24;" parent="1" vertex="1">
          <mxGeometry x="364" y="260" width="50" height="50" as="geometry" />
        </mxCell>
        <mxCell id="2uR5KkTxT499U1MgxyAB-4" value="2" style="ellipse;whiteSpace=wrap;html=1;aspect=fixed;fontFamily=Times New Roman;fontSize=24;" parent="1" vertex="1">
          <mxGeometry x="460" y="260" width="50" height="50" as="geometry" />
        </mxCell>
        <mxCell id="2uR5KkTxT499U1MgxyAB-5" value="6" style="ellipse;whiteSpace=wrap;html=1;aspect=fixed;fontFamily=Times New Roman;fontSize=24;" parent="1" vertex="1">
          <mxGeometry x="210" y="350" width="50" height="50" as="geometry" />
        </mxCell>
        <mxCell id="2uR5KkTxT499U1MgxyAB-6" value="5" style="ellipse;whiteSpace=wrap;html=1;aspect=fixed;fontFamily=Times New Roman;fontSize=24;" parent="1" vertex="1">
          <mxGeometry x="310" y="350" width="50" height="50" as="geometry" />
        </mxCell>
        <mxCell id="2uR5KkTxT499U1MgxyAB-7" value="4" style="ellipse;whiteSpace=wrap;html=1;aspect=fixed;fontFamily=Times New Roman;fontSize=24;" parent="1" vertex="1">
          <mxGeometry x="460" y="350" width="50" height="50" as="geometry" />
        </mxCell>
        <mxCell id="2uR5KkTxT499U1MgxyAB-8" value="" style="endArrow=none;html=1;rounded=0;entryX=0.5;entryY=1;entryDx=0;entryDy=0;exitX=0.5;exitY=0;exitDx=0;exitDy=0;fontFamily=Times New Roman;fontSize=24;" parent="1" source="2uR5KkTxT499U1MgxyAB-2" target="2uR5KkTxT499U1MgxyAB-1" edge="1">
          <mxGeometry width="50" height="50" relative="1" as="geometry">
            <mxPoint x="410" y="380" as="sourcePoint" />
            <mxPoint x="460" y="330" as="targetPoint" />
          </mxGeometry>
        </mxCell>
        <mxCell id="2uR5KkTxT499U1MgxyAB-9" value="" style="endArrow=none;html=1;rounded=0;entryX=0.5;entryY=1;entryDx=0;entryDy=0;exitX=0.5;exitY=0;exitDx=0;exitDy=0;fontFamily=Times New Roman;fontSize=24;" parent="1" source="2uR5KkTxT499U1MgxyAB-3" target="2uR5KkTxT499U1MgxyAB-1" edge="1">
          <mxGeometry width="50" height="50" relative="1" as="geometry">
            <mxPoint x="410" y="380" as="sourcePoint" />
            <mxPoint x="460" y="330" as="targetPoint" />
          </mxGeometry>
        </mxCell>
        <mxCell id="2uR5KkTxT499U1MgxyAB-10" value="" style="endArrow=none;html=1;rounded=0;entryX=0.5;entryY=1;entryDx=0;entryDy=0;exitX=0.5;exitY=0;exitDx=0;exitDy=0;fontFamily=Times New Roman;fontSize=24;" parent="1" source="2uR5KkTxT499U1MgxyAB-4" target="2uR5KkTxT499U1MgxyAB-1" edge="1">
          <mxGeometry width="50" height="50" relative="1" as="geometry">
            <mxPoint x="410" y="380" as="sourcePoint" />
            <mxPoint x="460" y="330" as="targetPoint" />
          </mxGeometry>
        </mxCell>
        <mxCell id="2uR5KkTxT499U1MgxyAB-11" value="" style="endArrow=none;html=1;rounded=0;entryX=0.5;entryY=1;entryDx=0;entryDy=0;exitX=0.5;exitY=0;exitDx=0;exitDy=0;fontFamily=Times New Roman;fontSize=24;" parent="1" source="2uR5KkTxT499U1MgxyAB-5" target="2uR5KkTxT499U1MgxyAB-2" edge="1">
          <mxGeometry width="50" height="50" relative="1" as="geometry">
            <mxPoint x="410" y="380" as="sourcePoint" />
            <mxPoint x="460" y="330" as="targetPoint" />
          </mxGeometry>
        </mxCell>
        <mxCell id="2uR5KkTxT499U1MgxyAB-12" value="" style="endArrow=none;html=1;rounded=0;entryX=0.5;entryY=1;entryDx=0;entryDy=0;exitX=0.5;exitY=0;exitDx=0;exitDy=0;fontFamily=Times New Roman;fontSize=24;" parent="1" source="2uR5KkTxT499U1MgxyAB-6" target="2uR5KkTxT499U1MgxyAB-2" edge="1">
          <mxGeometry width="50" height="50" relative="1" as="geometry">
            <mxPoint x="410" y="380" as="sourcePoint" />
            <mxPoint x="460" y="330" as="targetPoint" />
          </mxGeometry>
        </mxCell>
        <mxCell id="2uR5KkTxT499U1MgxyAB-13" value="" style="endArrow=none;html=1;rounded=0;entryX=0.5;entryY=1;entryDx=0;entryDy=0;exitX=0.5;exitY=0;exitDx=0;exitDy=0;fontFamily=Times New Roman;fontSize=24;" parent="1" source="2uR5KkTxT499U1MgxyAB-7" target="2uR5KkTxT499U1MgxyAB-4" edge="1">
          <mxGeometry width="50" height="50" relative="1" as="geometry">
            <mxPoint x="370" y="360" as="sourcePoint" />
            <mxPoint x="420" y="310" as="targetPoint" />
          </mxGeometry>
        </mxCell>
        <mxCell id="2uR5KkTxT499U1MgxyAB-14" value="&lt;div align=&quot;right&quot;&gt;&lt;font style=&quot;font-size: 20px;&quot; face=&quot;Times New Roman&quot;&gt;&lt;i&gt;c&lt;/i&gt;=4 (4)&lt;/font&gt;&lt;/div&gt;" style="text;html=1;strokeColor=none;fillColor=none;align=right;verticalAlign=middle;whiteSpace=wrap;rounded=0;" parent="1" vertex="1">
          <mxGeometry x="180" y="270" width="80" height="30" as="geometry" />
        </mxCell>
        <mxCell id="2uR5KkTxT499U1MgxyAB-15" value="&lt;div align=&quot;right&quot;&gt;&lt;font style=&quot;font-size: 20px;&quot; face=&quot;Times New Roman&quot;&gt;&lt;i&gt;c&lt;/i&gt;=4 (8)&lt;/font&gt;&lt;/div&gt;" style="text;html=1;strokeColor=none;fillColor=none;align=right;verticalAlign=middle;whiteSpace=wrap;rounded=0;" parent="1" vertex="1">
          <mxGeometry x="130" y="360" width="80" height="30" as="geometry" />
        </mxCell>
        <mxCell id="2uR5KkTxT499U1MgxyAB-16" value="&lt;div&gt;&lt;font style=&quot;font-size: 20px;&quot; face=&quot;Times New Roman&quot;&gt;&lt;i&gt;c&lt;/i&gt;=2 (6)&lt;/font&gt;&lt;/div&gt;" style="text;html=1;strokeColor=none;fillColor=none;align=left;verticalAlign=middle;whiteSpace=wrap;rounded=0;" parent="1" vertex="1">
          <mxGeometry x="360" y="360" width="80" height="30" as="geometry" />
        </mxCell>
        <mxCell id="2uR5KkTxT499U1MgxyAB-17" value="&lt;div&gt;&lt;font style=&quot;font-size: 20px;&quot; face=&quot;Times New Roman&quot;&gt;&lt;i&gt;c&lt;/i&gt;=3 (5)&lt;/font&gt;&lt;/div&gt;" style="text;html=1;strokeColor=none;fillColor=none;align=left;verticalAlign=middle;whiteSpace=wrap;rounded=0;" parent="1" vertex="1">
          <mxGeometry x="510" y="360" width="80" height="30" as="geometry" />
        </mxCell>
        <mxCell id="2uR5KkTxT499U1MgxyAB-18" value="&lt;div&gt;&lt;font style=&quot;font-size: 20px;&quot; face=&quot;Times New Roman&quot;&gt;&lt;i&gt;c&lt;/i&gt;=2 (2)&lt;/font&gt;&lt;/div&gt;" style="text;html=1;strokeColor=none;fillColor=none;align=left;verticalAlign=middle;whiteSpace=wrap;rounded=0;" parent="1" vertex="1">
          <mxGeometry x="510" y="270" width="80" height="30" as="geometry" />
        </mxCell>
        <mxCell id="2uR5KkTxT499U1MgxyAB-19" value="&lt;div&gt;&lt;font style=&quot;font-size: 20px;&quot; face=&quot;Times New Roman&quot;&gt;&lt;i&gt;c&lt;/i&gt;=9 (9)&lt;/font&gt;&lt;/div&gt;" style="text;html=1;strokeColor=none;fillColor=none;align=left;verticalAlign=middle;whiteSpace=wrap;rounded=0;" parent="1" vertex="1">
          <mxGeometry x="358" y="305" width="80" height="30" as="geometry" />
        </mxCell>
      </root>
    </mxGraphModel>
  </diagram>
</mxfile>
